<?xml version="1.0" encoding="utf-8"?>
<!-- Generator: Adobe Illustrator 23.0.1, SVG Export Plug-In . SVG Version: 6.00 Build 0)  -->
<svg version="1.1" id="Слой_1" xmlns="http://www.w3.org/2000/svg" xmlns:xlink="http://www.w3.org/1999/xlink" x="0px" y="0px"
	 viewBox="0 0 511 511" style="enable-background:new 0 0 511 511;" xml:space="preserve">
<style type="text/css">
	.st0{fill:#D34141;}
</style>
<path class="st0" d="M501.9,218.9c-5.3-8-13.3-13.5-22.7-15.6c6-11.5,5.8-25.9-1.9-37.5c-5.5-8.2-13.7-13.6-22.7-15.6
	c1.6-3,2.8-6.3,3.5-9.8c2-9.6,0-19.5-5.4-27.7c-5.3-8-13.3-13.5-22.7-15.6c6-11.5,5.8-25.9-1.9-37.5c-11.2-16.9-34.1-21.6-51.1-10.4
	l-36.7,24.3c-19.6-9.9-40.4-17-61.9-21c-6.8-10.4-14.8-20-23.6-28.6L239.7,9.3c-11.1-10.8-28.5-12.4-41.5-3.8
	c-15.3,10.1-19.5,30.8-9.4,46c0.4,0.6,0.8,1.2,1.2,1.8C140.4,63.4,95,89.8,61.5,128.5C25,170.5,5,224.2,5,279.9
	c0,10.7,0.7,21.4,2.2,31.8c11.1,80.9,65,150.5,140.6,181.9c28,11.6,57.8,17.5,88.4,17.5c48.5,0,94.9-14.8,134.2-42.9
	c38.5-27.5,67.3-65.4,83.2-109.7c1.5-4.1-0.6-8.7-4.8-10.2c-4.1-1.5-8.7,0.6-10.2,4.8c-14.9,41.2-41.7,76.5-77.5,102.2
	c-36.6,26.2-79.8,40-125,40c-23.3,0-46.1-3.7-68-11l64.6-42.8c0,0,0,0,0,0c0,0,0,0,0,0l53.7-35.6h0c4.8-3.2,8.1-8.1,9.3-13.8
	s0-11.5-3.2-16.3l-0.7-1.1l10.4-6.9c7.4-4.9,16.4-6.9,25.2-5.5c12.8,2.1,25.7-0.8,36.5-7.9l86.6-57.3c-0.6,7.5-1.6,15-2.9,22.3
	c-0.8,4.3,2,8.5,6.4,9.3c0.5,0.1,1,0.1,1.5,0.1c3.8,0,7.1-2.7,7.8-6.5c2.2-11.8,3.5-24,3.8-36.1l24.4-16.2
	c8.2-5.4,13.8-13.7,15.8-23.4C509.3,237,507.4,227.1,501.9,218.9z M325.1,83.8l-24.3,16.1L296,87c-2-5.4-4.3-10.6-6.8-15.8
	C301.5,74.3,313.5,78.5,325.1,83.8z M73.5,138.9c32.3-37.2,76.2-62.2,124.2-70.8c7.7,18.7,9.6,39.6,5,59.5l-19.4,83.7
	c-3-3.3-7-5.5-11.5-6.4c-5.7-1.2-11.5,0-16.3,3.2l-54.9,36.3c0,0,0,0,0,0c0,0,0,0,0,0l-79.1,52.4c-0.4-5.6-0.7-11.2-0.7-16.8
	C20.9,228,39.6,178,73.5,138.9z M280.3,388.8c-0.3,1.5-1.2,2.8-2.5,3.7h0l-47.2,31.2L143,293.1c-2.4-3.6-7.4-4.6-11-2.2
	c-3.6,2.4-4.6,7.4-2.2,11l87.5,130.5L150,477.1C83,447.9,35.1,386,23.6,314.1l79.2-52.3l9.1,13.6c1.5,2.3,4,3.5,6.6,3.5
	c1.5,0,3.1-0.4,4.4-1.3c3.6-2.4,4.6-7.4,2.2-11l-9.1-13.5l48.2-31.8c1.3-0.9,2.8-1.2,4.3-0.8c1.5,0.3,2.8,1.2,3.7,2.5l107.1,161.7
	C280.3,385.8,280.6,387.3,280.3,388.8z M491.8,243.4c-1.1,5.5-4.3,10.2-9,13.3l-27.9,18.5c0,0,0,0,0,0l-99.5,65.9
	c-7.4,4.9-16.4,6.9-25.2,5.5c-12.8-2-25.7,0.8-36.5,7.9l-10.4,6.9L195.5,229l22.7-97.9c5.8-25.2,2.8-51.8-8.4-74.9
	c-0.1-0.2-0.2-0.5-0.3-0.7c-2.1-4.4-4.6-8.6-7.3-12.7c-5.3-8-3.1-18.7,4.9-24c6.7-4.5,15.8-3.6,21.6,2l15.2,14.7
	c16.4,15.9,29.3,35.7,37.3,57.1l8.3,22.3c0,0,0,0.1,0,0.1c0,0.1,0,0.1,0.1,0.2c0.1,0.1,0.1,0.3,0.2,0.4c0.2,0.3,0.3,0.7,0.5,1
	c2.4,3.7,7.4,4.7,11,2.2L386,62.5c9.6-6.4,22.7-3.7,29.1,5.9s3.7,22.7-5.9,29.1l-7.4,4.9c0,0,0,0,0,0l-16.4,10.9c0,0,0,0-0.1,0
	c-0.1,0.1-0.2,0.1-0.3,0.2c-3.4,2.5-4.3,7.2-1.9,10.8c2.4,3.7,7.4,4.7,11,2.2l16.4-10.9c4.7-3.1,10.3-4.2,15.7-3.1
	c5.5,1.1,10.2,4.3,13.3,9c3.1,4.7,4.2,10.3,3.1,15.7c-1.1,5.5-4.3,10.2-9,13.3l-23.8,15.7c-3.7,2.4-4.7,7.3-2.2,11
	c1.5,2.3,4.1,3.6,6.6,3.6c1.5,0,3-0.4,4.4-1.3l3.7-2.4l12.7-8.4c9.6-6.4,22.7-3.7,29.1,5.9c6.4,9.6,3.7,22.7-5.9,29.1l-11.9,7.9
	c-0.1,0-0.1,0.1-0.2,0.1l-11.7,7.8c-3.7,2.4-4.7,7.4-2.2,11c1.5,2.3,4.1,3.6,6.6,3.6c1.5,0,3-0.4,4.4-1.3l3.7-2.4c0,0,0,0,0,0
	l12.7-8.4c4.7-3.1,10.3-4.2,15.7-3.1c5.5,1.1,10.2,4.3,13.3,9C491.8,232.4,492.9,237.9,491.8,243.4z"/>
</svg>
