<?xml version="1.0" encoding="utf-8"?>
<!-- Generator: Adobe Illustrator 23.0.1, SVG Export Plug-In . SVG Version: 6.00 Build 0)  -->
<svg version="1.1" id="Capa_1" xmlns="http://www.w3.org/2000/svg" xmlns:xlink="http://www.w3.org/1999/xlink" x="0px" y="0px"
	 viewBox="0 0 512 512" style="enable-background:new 0 0 512 512;" xml:space="preserve">
<style type="text/css">
	.st0{fill:#5A5A59;}
</style>
<g>
	<g>
		<g>
			<path class="st0" d="M131.5,472H60.7c-8.5,0-13.7-4.8-16-7.6c-4-4.9-5.5-11.3-4.2-17.5c20.8-99.8,108.8-172.6,210.4-175
				c1.7,0.1,3.4,0.1,5.1,0.1c1.7,0,3.4,0,5.1-0.1c24.9,0.6,49.1,5.2,72.2,13.9c10.3,3.9,21.9-1.4,25.8-11.7
				c3.9-10.3-1.4-21.9-11.7-25.8c-3.3-1.2-6.6-2.4-10-3.5C370.5,220,392,180.5,392,136C392,61,331,0,256,0S120,61,120,136
				c0,44.5,21.5,84.1,54.6,108.9c-30.4,10-58.9,25.5-83.8,46.1c-45.7,37.6-77.5,90.1-89.5,147.7c-3.8,18.1,0.7,36.6,12.4,50.9
				c11.6,14.2,28.7,22.4,47,22.4h70.8c11,0,20-9,20-20S142.5,472,131.5,472z M160,136c0-52.9,43.1-96,96-96s96,43.1,96,96
				c0,51.4-40.6,93.4-91.3,95.9c-1.6,0-3.1-0.1-4.7-0.1c-1.6,0-3.1,0-4.7,0.1C200.5,229.4,160,187.4,160,136z"/>
			<path class="st0" d="M496.7,344.6c-8.6-19.1-27.8-31.6-49.2-31.6h-62.4c0,0-0.1,0-0.1,0c-22.5,0-42.1,13.3-50,33.8
				c-1.1,2.7-2.3,6.2-3.7,10.2H200.4c-5.4,0-10.6,2.2-14.4,6.1l-34.4,35.4c-7.6,7.8-7.5,20.2,0.1,28l35,35.6c3.8,3.8,8.9,6,14.3,6
				h65c11,0,20-9,20-20s-9-20-20-20h-56.6L194,412.3l14.9-15.3h137.5c9.2,0,17.2-6.3,19.4-15.2c1.6-6.6,3.6-13,6.6-20.6
				c1.9-5,6.8-8.2,12.7-8.2c0,0,0,0,0,0h62.4c5.7,0,10.5,3.1,12.7,7.9c5.4,12,11.8,30.6,11.8,51c0,20.5-6.4,39.6-11.7,51.9
				c-2.2,5-7.1,8.2-12.6,8.2c0,0,0,0,0,0h-63.1c-5.5,0-10.7-3.6-12.9-8.9c-2.3-5.7-4.4-12.1-6.2-19.8c-2.6-10.7-13.4-17.4-24.1-14.8
				c-10.7,2.6-17.4,13.4-14.8,24.1c2.3,9.7,5,18.1,8.1,25.7c8.4,20.4,27.9,33.6,49.8,33.6h63.1c0,0,0.1,0,0.1,0
				c21.4,0,40.6-12.6,49.2-32.2c6.9-15.9,15.1-40.5,15.1-68C511.9,384.4,503.6,360.2,496.7,344.6z"/>
			<circle class="st0" cx="431" cy="412" r="20"/>
		</g>
	</g>
</g>
</svg>
